<svg width="40" height="40" viewBox="0 0 40 40" fill="none" xmlns="http://www.w3.org/2000/svg">
<path fill-rule="evenodd" clip-rule="evenodd" d="M27.4667 23.3333H34.1667C35.2717 23.3333 36.3315 22.8943 37.113 22.1129C37.8944 21.3315 38.3333 20.2717 38.3333 19.1666C38.3333 18.0615 37.8944 17.0017 37.113 16.2203C36.3315 15.4389 35.2717 14.9999 34.1667 14.9999H11.03C10.7206 14.9998 10.4173 14.9134 10.1541 14.7507C9.89097 14.5879 9.67832 14.3551 9.54001 14.0783L8.79334 12.5883C8.65502 12.3115 8.44237 12.0786 8.17922 11.9158C7.91606 11.7531 7.61278 11.6668 7.30334 11.6666H4.19501C3.91906 11.6663 3.64738 11.7346 3.40433 11.8653C3.16129 11.9959 2.95448 12.1849 2.80249 12.4152C2.65049 12.6455 2.55806 12.91 2.53348 13.1848C2.5089 13.4596 2.55295 13.7363 2.66167 13.9899L6.23334 22.3233C6.36194 22.6233 6.5758 22.8789 6.84838 23.0584C7.12097 23.238 7.44027 23.3335 7.76667 23.3333H14.205C14.4772 23.3334 14.7453 23.4003 14.9857 23.528C15.2261 23.6556 15.4316 23.8403 15.5842 24.0657C15.7368 24.2911 15.8318 24.5505 15.861 24.8211C15.8902 25.0918 15.8527 25.3655 15.7517 25.6183L14.25 29.3833C14.1494 29.6358 14.1121 29.9092 14.1414 30.1795C14.1707 30.4497 14.2657 30.7088 14.418 30.9339C14.5704 31.1591 14.7755 31.3436 15.0155 31.4713C15.2555 31.599 15.5231 31.666 15.795 31.6666H19.1983C19.4483 31.6667 19.6951 31.6106 19.9204 31.5024C20.1457 31.3942 20.3438 31.2367 20.5 31.0416L26.1667 23.9583C26.3227 23.7634 26.5205 23.606 26.7456 23.4978C26.9706 23.3897 27.217 23.3334 27.4667 23.3333ZM15.8333 13.3333H23.75L20.5 8.99992C20.3448 8.79293 20.1435 8.62492 19.912 8.50921C19.6806 8.39349 19.4254 8.33325 19.1667 8.33325H16.03C15.746 8.3334 15.4668 8.40612 15.2188 8.54449C14.9708 8.68287 14.7623 8.88231 14.613 9.12391C14.4637 9.3655 14.3787 9.64123 14.3659 9.92493C14.3531 10.2086 14.4131 10.4909 14.54 10.7449L15.8333 13.3333Z" fill="#E15814"/>
</svg>
