<svg width="30" height="30" viewBox="0 0 30 30" fill="none" xmlns="http://www.w3.org/2000/svg">
<path d="M7.5 27.5C6.8125 27.5 6.22417 27.2554 5.735 26.7663C5.24583 26.2771 5.00083 25.6883 5 25V5C5 4.3125 5.245 3.72417 5.735 3.235C6.225 2.74583 6.81333 2.50083 7.5 2.5H22.5C23.1875 2.5 23.7763 2.745 24.2663 3.235C24.7563 3.725 25.0008 4.31333 25 5V25C25 25.6875 24.7554 26.2763 24.2663 26.7663C23.7771 27.2563 23.1883 27.5008 22.5 27.5H7.5ZM13.75 5V12.6562C13.75 12.9063 13.8492 13.0887 14.0475 13.2037C14.2458 13.3187 14.4592 13.3133 14.6875 13.1875L16.2188 12.2812C16.4271 12.1562 16.6408 12.0938 16.86 12.0938C17.0792 12.0938 17.2925 12.1562 17.5 12.2812L19.0313 13.1875C19.2604 13.3125 19.4792 13.3179 19.6875 13.2037C19.8958 13.0896 20 12.9071 20 12.6562V5H13.75Z" fill="url(#paint0_linear_304_233)"/>
<defs>
<linearGradient id="paint0_linear_304_233" x1="15" y1="2.5" x2="15" y2="27.5" gradientUnits="userSpaceOnUse">
<stop stop-color="#E15814"/>
<stop offset="1" stop-color="#FF8B51"/>
</linearGradient>
</defs>
</svg>
