<svg width="40" height="40" viewBox="0 0 40 40" fill="none" xmlns="http://www.w3.org/2000/svg">
<path d="M1.66675 30.25V10.1666C1.66675 9.86107 1.74341 9.56941 1.89675 9.29163C2.05008 9.01385 2.27897 8.80552 2.58341 8.66663C3.86119 7.99996 5.19453 7.49996 6.58341 7.16663C7.9723 6.8333 9.38897 6.66663 10.8334 6.66663C12.889 6.66663 14.639 6.90274 16.0834 7.37496C17.5279 7.84719 19.0834 8.56941 20.7501 9.54163C21.0556 9.7083 21.2851 9.90274 21.4384 10.125C21.5917 10.3472 21.6679 10.6389 21.6667 11V28.4166C22.889 27.8333 24.1184 27.3955 25.3551 27.1033C26.5917 26.8111 27.8623 26.6655 29.1667 26.6666C30.1667 26.6666 31.1462 26.75 32.1051 26.9166C33.064 27.0833 34.029 27.3333 35.0001 27.6666V9.29163C35.0001 8.81941 35.1601 8.4233 35.4801 8.1033C35.8001 7.7833 36.1956 7.62385 36.6667 7.62496C37.1379 7.62607 37.534 7.78607 37.8551 8.10496C38.1762 8.42385 38.3356 8.81941 38.3334 9.29163V30.25C38.3334 30.8889 38.0623 31.375 37.5201 31.7083C36.9779 32.0416 36.4156 32.0555 35.8334 31.75C34.8056 31.1944 33.7295 30.7639 32.6051 30.4583C31.4806 30.1527 30.3345 30 29.1667 30C27.8056 30 26.4795 30.2016 25.1884 30.605C23.8973 31.0083 22.6679 31.5705 21.5001 32.2916C21.2779 32.4305 21.0351 32.535 20.7717 32.605C20.5084 32.675 20.2512 32.7094 20.0001 32.7083C19.749 32.7072 19.4923 32.6727 19.2301 32.605C18.9679 32.5372 18.7245 32.4327 18.5001 32.2916C17.3334 31.5694 16.1045 31.0072 14.8134 30.605C13.5223 30.2027 12.1956 30.0011 10.8334 30C9.66675 30 8.52119 30.1527 7.39675 30.4583C6.2723 30.7639 5.19564 31.1944 4.16675 31.75C3.58341 32.0555 3.02119 32.0416 2.48008 31.7083C1.93897 31.375 1.66786 30.8889 1.66675 30.25ZM25.8334 21.5833V6.2083C25.8334 5.84718 25.9379 5.52052 26.1467 5.2283C26.3556 4.93607 26.6262 4.73496 26.9584 4.62496L29.2084 3.87496C29.5973 3.73607 29.9656 3.79885 30.3134 4.0633C30.6612 4.32774 30.8345 4.66774 30.8334 5.0833V20.4583C30.8334 20.8194 30.7295 21.1461 30.5217 21.4383C30.314 21.7305 30.0429 21.9316 29.7084 22.0416L27.4584 22.7916C27.0695 22.9305 26.7012 22.8683 26.3534 22.605C26.0056 22.3416 25.8323 22.0011 25.8334 21.5833Z" fill="#E15814"/>
</svg>
