<svg width="30" height="30" viewBox="0 0 30 30" fill="none" xmlns="http://www.w3.org/2000/svg">
<path fill-rule="evenodd" clip-rule="evenodd" d="M12.5001 2.8125C12.086 2.8123 11.6803 2.92966 11.3302 3.15094C10.9801 3.37222 10.7001 3.68832 10.5226 4.0625C9.6676 4.07 9.0026 4.10875 8.4076 4.34125C7.69732 4.61909 7.07959 5.09127 6.6251 5.70375C6.16635 6.32 5.9501 7.1125 5.6551 8.20125L5.59635 8.41375L4.9551 12.1187C4.72427 12.2779 4.52177 12.4692 4.3476 12.6925C3.22135 14.1338 3.7576 16.28 4.8301 20.5687C5.51135 23.2975 5.8526 24.6612 6.8701 25.4562C7.8876 26.25 9.29385 26.25 12.1064 26.25H17.8939C20.7064 26.25 22.1126 26.25 23.1301 25.4562C24.1476 24.6612 24.4876 23.2975 25.1701 20.5687C26.2426 16.2788 26.7789 14.135 25.6526 12.6925C25.4802 12.4709 25.2749 12.277 25.0439 12.1175L24.4026 8.415L24.3451 8.2025C24.0489 7.1125 23.8326 6.32 23.3751 5.7025C22.9204 5.09048 22.3027 4.61875 21.5926 4.34125C20.9976 4.10875 20.3314 4.07 19.4776 4.06375C19.3003 3.68934 19.0203 3.37298 18.6702 3.15147C18.3202 2.92996 17.9144 2.81241 17.5001 2.8125H12.5001ZM23.0226 11.4325L22.5701 8.8225C22.2164 7.5225 22.0876 7.11375 21.8701 6.82125C21.6253 6.49139 21.2926 6.2371 20.9101 6.0875C20.6351 5.98 20.3026 5.94875 19.4751 5.94C19.2974 6.31333 19.0176 6.62866 18.6681 6.84945C18.3185 7.07024 17.9135 7.18746 17.5001 7.1875H12.5001C12.0867 7.18746 11.6817 7.07024 11.3321 6.84945C10.9826 6.62866 10.7028 6.31333 10.5251 5.94C9.69635 5.94875 9.3651 5.98 9.0901 6.0875C8.70756 6.2371 8.37487 6.49139 8.1301 6.82125C7.9126 7.11375 7.78385 7.52125 7.4301 8.82125L6.9776 11.4325C8.2251 11.25 9.8876 11.25 12.1064 11.25H17.8939C20.1126 11.25 21.7751 11.25 23.0226 11.4325ZM10.0001 15.3125C10.2487 15.3125 10.4872 15.4113 10.663 15.5871C10.8388 15.7629 10.9376 16.0014 10.9376 16.25V21.25C10.9376 21.4986 10.8388 21.7371 10.663 21.9129C10.4872 22.0887 10.2487 22.1875 10.0001 22.1875C9.75146 22.1875 9.513 22.0887 9.33719 21.9129C9.16137 21.7371 9.0626 21.4986 9.0626 21.25V16.25C9.0626 16.0014 9.16137 15.7629 9.33719 15.5871C9.513 15.4113 9.75146 15.3125 10.0001 15.3125ZM20.9376 16.25C20.9376 16.0014 20.8388 15.7629 20.663 15.5871C20.4872 15.4113 20.2487 15.3125 20.0001 15.3125C19.7515 15.3125 19.513 15.4113 19.3372 15.5871C19.1614 15.7629 19.0626 16.0014 19.0626 16.25V21.25C19.0626 21.4986 19.1614 21.7371 19.3372 21.9129C19.513 22.0887 19.7515 22.1875 20.0001 22.1875C20.2487 22.1875 20.4872 22.0887 20.663 21.9129C20.8388 21.7371 20.9376 21.4986 20.9376 21.25V16.25ZM15.0001 15.3125C15.2487 15.3125 15.4872 15.4113 15.663 15.5871C15.8388 15.7629 15.9376 16.0014 15.9376 16.25V21.25C15.9376 21.4986 15.8388 21.7371 15.663 21.9129C15.4872 22.0887 15.2487 22.1875 15.0001 22.1875C14.7515 22.1875 14.513 22.0887 14.3372 21.9129C14.1614 21.7371 14.0626 21.4986 14.0626 21.25V16.25C14.0626 16.0014 14.1614 15.7629 14.3372 15.5871C14.513 15.4113 14.7515 15.3125 15.0001 15.3125Z" fill="#E15814"/>
</svg>
