<svg width="40" height="40" viewBox="0 0 40 40" fill="none" xmlns="http://www.w3.org/2000/svg">
<path d="M28.333 16.6666C31.0944 16.6666 33.333 14.428 33.333 11.6666C33.333 8.9052 31.0944 6.66663 28.333 6.66663C25.5716 6.66663 23.333 8.9052 23.333 11.6666C23.333 14.428 25.5716 16.6666 28.333 16.6666Z" stroke="#E15814" stroke-width="2.5" stroke-linecap="round" stroke-linejoin="round"/>
<path d="M11.6665 33.3333C14.4279 33.3333 16.6665 31.0947 16.6665 28.3333C16.6665 25.5718 14.4279 23.3333 11.6665 23.3333C8.90508 23.3333 6.6665 25.5718 6.6665 28.3333C6.6665 31.0947 8.90508 33.3333 11.6665 33.3333Z" stroke="#E15814" stroke-width="2.5" stroke-linecap="round" stroke-linejoin="round"/>
<path d="M23.3332 23.3333H33.3332V31.6666C33.3332 32.1087 33.1576 32.5326 32.845 32.8451C32.5325 33.1577 32.1085 33.3333 31.6665 33.3333H24.9998C24.5578 33.3333 24.1339 33.1577 23.8213 32.8451C23.5088 32.5326 23.3332 32.1087 23.3332 31.6666V23.3333ZM6.6665 6.66663H16.6665V15C16.6665 15.442 16.4909 15.8659 16.1783 16.1785C15.8658 16.491 15.4419 16.6666 14.9998 16.6666H8.33317C7.89114 16.6666 7.46722 16.491 7.15466 16.1785C6.8421 15.8659 6.6665 15.442 6.6665 15V6.66663Z" stroke="#E15814" stroke-width="2.5" stroke-linecap="round" stroke-linejoin="round"/>
</svg>
