<svg width="40" height="40" viewBox="0 0 40 40" fill="none" xmlns="http://www.w3.org/2000/svg">
<path d="M25 1.66663H15V4.99996H25V1.66663ZM18.3333 23.3333H21.6667V13.3333H18.3333V23.3333ZM31.7167 12.3166L34.0833 9.94996C33.3667 9.09996 32.5833 8.29996 31.7333 7.59996L29.3667 9.96663C26.7123 7.83026 23.4073 6.66584 20 6.66663C11.7167 6.66663 5 13.3833 5 21.6666C5 29.95 11.7 36.6666 20 36.6666C22.8238 36.6682 25.5907 35.872 27.9819 34.3699C30.3731 32.8678 32.2913 30.7208 33.5157 28.1762C34.7401 25.6316 35.2209 22.7929 34.9026 19.987C34.5843 17.1812 33.4799 14.5223 31.7167 12.3166ZM20 33.3333C13.55 33.3333 8.33333 28.1166 8.33333 21.6666C8.33333 15.2166 13.55 9.99996 20 9.99996C26.45 9.99996 31.6667 15.2166 31.6667 21.6666C31.6667 28.1166 26.45 33.3333 20 33.3333Z" fill="#E15814"/>
</svg>
