<svg width="40" height="40" viewBox="0 0 40 40" fill="none" xmlns="http://www.w3.org/2000/svg">
<path fill-rule="evenodd" clip-rule="evenodd" d="M7.87726 1.2972C15.9395 0.540582 24.055 0.540582 32.1173 1.2972C33.1461 1.39214 34.1073 1.85076 34.8284 2.5907C35.5495 3.33064 35.9832 4.30342 36.0515 5.33434C36.5658 13.0686 36.6801 20.4486 36.403 28.0201C36.3973 28.1829 36.2315 28.2943 36.0715 28.2458C35.5479 28.0878 35.0085 27.9882 34.463 27.9486C25.2981 27.2778 16.0964 27.2778 6.93155 27.9486C6.17332 28.0035 5.42871 28.179 4.72583 28.4686C4.22012 28.6772 3.60583 28.3486 3.58297 27.8001C3.31615 20.3102 3.43726 12.8116 3.94583 5.33434C4.08869 3.20863 5.74583 1.49149 7.87726 1.2972ZM17.743 6.88291C16.7315 6.02577 15.2287 6.1572 14.4573 7.23149C14.2142 7.57361 13.9617 7.90898 13.7001 8.2372C12.3287 9.9572 12.3287 12.4458 13.7087 14.1572C14.7287 15.4201 15.7944 16.6972 16.9944 17.8915C18.1887 19.0886 19.463 20.1572 20.7287 21.1772C22.4401 22.5572 24.9287 22.5572 26.6458 21.1829C26.9905 20.908 27.343 20.6431 27.703 20.3886C27.9461 20.2128 28.1502 19.9884 28.3023 19.7297C28.4544 19.471 28.5512 19.1836 28.5867 18.8856C28.6221 18.5876 28.5954 18.2855 28.5082 17.9983C28.421 17.7112 28.2753 17.4452 28.0801 17.2172C27.6223 16.676 27.1478 16.149 26.6573 15.6372C26.2815 15.2489 25.7713 15.0191 25.2314 14.9952C24.6916 14.9713 24.163 15.155 23.7544 15.5086C23.6268 15.6172 23.4868 15.742 23.3344 15.8829C23.2217 15.9889 23.0772 16.0548 22.9232 16.0703C22.7693 16.0858 22.6145 16.05 22.483 15.9686C21.0307 15.0756 19.8092 13.853 18.9173 12.4001C18.8358 12.2685 18.8001 12.1137 18.8156 11.9598C18.8311 11.8059 18.897 11.6613 19.003 11.5486L19.383 11.1229C19.7387 10.7169 19.9232 10.1888 19.8977 9.64954C19.8721 9.11031 19.6384 8.602 19.2458 8.23149C18.7555 7.77022 18.2544 7.32057 17.743 6.88291ZM35.0287 31.6601C35.4001 31.7743 35.4515 32.2315 35.2087 32.5343C34.6011 33.272 34.2653 34.1959 34.2573 35.1515C34.2573 36.1115 34.603 37.0086 35.2001 37.7572C35.4401 38.0601 35.3858 38.5201 35.0173 38.6315C34.762 38.7077 34.4934 38.7572 34.2115 38.7801C24.943 39.4372 16.4544 39.4372 7.18297 38.7801C5.66583 38.6715 4.4744 37.6801 4.36583 36.4458L4.26012 35.1458L4.36583 33.8429C4.4744 32.6086 5.66583 31.6172 7.18583 31.5115C16.1824 30.8551 25.2149 30.8551 34.2115 31.5115C34.4973 31.5324 34.7696 31.582 35.0287 31.6601Z" fill="#E15814"/>
</svg>
