<svg width="41" height="41" viewBox="0 0 41 41" fill="none" xmlns="http://www.w3.org/2000/svg">
<path d="M35.8748 19.9998C36.2622 19.9998 36.6039 19.9993 36.8777 20.0359C37.1653 20.0744 37.4523 20.162 37.6863 20.3943L37.6892 20.3972C37.9212 20.631 38.009 20.9171 38.0476 21.2048C38.0843 21.4785 38.0837 21.8205 38.0837 22.2087V30.7498C38.0837 32.3466 38.0845 33.5949 37.9539 34.5662C37.8212 35.5517 37.545 36.3275 36.9363 36.9363C36.3275 37.545 35.5517 37.8212 34.5662 37.9539C33.5949 38.0845 32.3466 38.0837 30.7498 38.0837H10.2498C8.6531 38.0837 7.40553 38.0845 6.43433 37.9539C5.44873 37.8213 4.67301 37.545 4.06421 36.9363C3.45546 36.3275 3.17927 35.5517 3.04663 34.5662C2.91597 33.5949 2.91675 32.3466 2.91675 30.7498V22.2087C2.91675 21.8214 2.91528 21.4796 2.9519 21.2058C2.9904 20.9182 3.07888 20.6313 3.31128 20.3972L3.31421 20.3943C3.54799 20.1623 3.83413 20.0744 4.12183 20.0359C4.3954 19.9993 4.73669 19.9998 5.12476 19.9998H35.8748ZM30.7498 8.04175L31.8835 8.0437C32.9535 8.04953 33.8378 8.07364 34.5662 8.17163C35.5517 8.30427 36.3275 8.58046 36.9363 9.18921C37.545 9.79801 37.8213 10.5737 37.9539 11.5593C38.0845 12.5305 38.0837 13.7781 38.0837 15.3748C38.0837 15.763 38.0843 16.105 38.0476 16.3787C38.009 16.6664 37.9212 16.9525 37.6892 17.1863L37.6863 17.1892C37.4523 17.4215 37.1653 17.5091 36.8777 17.5476C36.6039 17.5842 36.2622 17.5837 35.8748 17.5837H5.12476C4.73669 17.5837 4.3954 17.5842 4.12183 17.5476C3.83413 17.5091 3.54799 17.4212 3.31421 17.1892L3.31128 17.1863C3.07888 16.9522 2.9904 16.6653 2.9519 16.3777C2.91528 16.1039 2.91675 15.7621 2.91675 15.3748C2.91675 13.7781 2.91598 12.5305 3.04663 11.5593C3.17925 10.5737 3.45539 9.79802 4.06421 9.18921C4.67302 8.58039 5.44867 8.30425 6.43433 8.17163C7.40553 8.04098 8.6531 8.04175 10.2498 8.04175H30.7498Z" fill="#E15814" stroke="white"/>
<path d="M11.9585 5.125V10.25M29.0418 5.125V10.25" stroke="#E15814" stroke-width="2" stroke-linecap="round"/>
</svg>
