<svg width="33" height="33" viewBox="0 0 33 33" fill="none" xmlns="http://www.w3.org/2000/svg">
<g clip-path="url(#clip0_321_408)">
<path fill-rule="evenodd" clip-rule="evenodd" d="M17.531 21.906C17.2575 22.1794 16.8867 22.333 16.5 22.333C16.1133 22.333 15.7424 22.1794 15.4689 21.906L7.21914 13.6562C7.07985 13.5217 6.96875 13.3608 6.89232 13.1829C6.81589 13.0049 6.77566 12.8136 6.77398 12.6199C6.7723 12.4263 6.8092 12.2343 6.88252 12.055C6.95585 11.8758 7.06414 11.713 7.20106 11.5761C7.33799 11.4391 7.50081 11.3308 7.68004 11.2575C7.85926 11.1842 8.05129 11.1473 8.24493 11.149C8.43857 11.1507 8.62993 11.1909 8.80785 11.2673C8.98577 11.3438 9.14669 11.4549 9.28122 11.5941L16.5 18.8129L23.7187 11.5941C23.9938 11.3285 24.3621 11.1815 24.7445 11.1848C25.1269 11.1881 25.4927 11.3415 25.763 11.6119C26.0334 11.8823 26.1868 12.2481 26.1901 12.6304C26.1934 13.0128 26.0465 13.3812 25.7808 13.6562L17.531 21.906Z" fill="#E15814"/>
</g>
<defs>
<clipPath id="clip0_321_408">
<rect width="35" height="35" fill="white" transform="translate(-1 -1)"/>
</clipPath>
</defs>
</svg>
