<svg width="30" height="30" viewBox="0 0 30 30" fill="none" xmlns="http://www.w3.org/2000/svg">
<path d="M15 20C14.3125 20 13.7242 19.7554 13.235 19.2663C12.7458 18.7771 12.5008 18.1883 12.5 17.5C12.4992 16.8117 12.7442 16.2233 13.235 15.735C13.7258 15.2467 14.3142 15.0017 15 15C15.6858 14.9983 16.2746 15.2433 16.7663 15.735C17.2579 16.2267 17.5025 16.815 17.5 17.5C17.4975 18.185 17.2529 18.7738 16.7663 19.2663C16.2796 19.7588 15.6908 20.0033 15 20ZM9.21875 8.75H20.7812L23.2812 3.75H6.71875L9.21875 8.75ZM10.5 26.25H19.5C21.375 26.25 22.9687 25.5992 24.2812 24.2975C25.5937 22.9958 26.25 21.3967 26.25 19.5C26.25 18.7083 26.1146 17.9375 25.8437 17.1875C25.5729 16.4375 25.1875 15.7604 24.6875 15.1562L21.4375 11.25H8.5625L5.3125 15.1562C4.8125 15.7604 4.42708 16.4375 4.15625 17.1875C3.88542 17.9375 3.75 18.7083 3.75 19.5C3.75 21.3958 4.40125 22.995 5.70375 24.2975C7.00625 25.6 8.605 26.2508 10.5 26.25Z" fill="url(#paint0_linear_304_241)"/>
<defs>
<linearGradient id="paint0_linear_304_241" x1="15" y1="3.75" x2="15" y2="26.25" gradientUnits="userSpaceOnUse">
<stop stop-color="#E15814"/>
<stop offset="1" stop-color="#FF8B51"/>
</linearGradient>
</defs>
</svg>
