<svg width="25" height="25" viewBox="0 0 25 25" fill="none" xmlns="http://www.w3.org/2000/svg">
<path d="M4.16683 20.8334C3.59391 20.8334 3.10364 20.6295 2.696 20.2219C2.28836 19.8143 2.08419 19.3236 2.0835 18.75V6.25002C2.0835 5.6771 2.28766 5.18683 2.696 4.77919C3.10433 4.37155 3.59461 4.16738 4.16683 4.16669H20.8335C21.4064 4.16669 21.897 4.37085 22.3054 4.77919C22.7137 5.18752 22.9175 5.6778 22.9168 6.25002V18.75C22.9168 19.3229 22.713 19.8136 22.3054 20.2219C21.8977 20.6302 21.4071 20.834 20.8335 20.8334H4.16683ZM12.5002 13.5417L20.8335 8.33335V6.25002L12.5002 11.4584L4.16683 6.25002V8.33335L12.5002 13.5417Z" fill="white"/>
</svg>
