<svg width="24" height="24" viewBox="0 0 24 24" fill="none" xmlns="http://www.w3.org/2000/svg">
<path fill-rule="evenodd" clip-rule="evenodd" d="M5.65006 1.31165C4.49931 1.31165 3.39566 1.76867 2.5818 2.58221C1.76794 3.39576 1.3105 4.49923 1.31006 5.64998V17.2233C1.31006 18.3743 1.76731 19.4782 2.58121 20.2922C3.39512 21.1061 4.49902 21.5633 5.65006 21.5633H17.2234C18.3741 21.5629 19.4776 21.1054 20.2912 20.2916C21.1047 19.4777 21.5617 18.3741 21.5617 17.2233V5.64998C21.5613 4.49952 21.1041 3.3963 20.2906 2.5828C19.4771 1.7693 18.3739 1.31209 17.2234 1.31165H5.65006ZM18.4717 5.65665C18.4717 5.98817 18.34 6.30611 18.1056 6.54053C17.8712 6.77495 17.5532 6.90665 17.2217 6.90665C16.8902 6.90665 16.5723 6.77495 16.3378 6.54053C16.1034 6.30611 15.9717 5.98817 15.9717 5.65665C15.9717 5.32512 16.1034 5.00718 16.3378 4.77276C16.5723 4.53834 16.8902 4.40665 17.2217 4.40665C17.5532 4.40665 17.8712 4.53834 18.1056 4.77276C18.34 5.00718 18.4717 5.32512 18.4717 5.65665ZM11.4384 7.96998C10.519 7.96998 9.63721 8.33521 8.98709 8.98534C8.33696 9.63547 7.97172 10.5172 7.97172 11.4366C7.97172 12.3561 8.33696 13.2378 8.98709 13.8879C9.63721 14.5381 10.519 14.9033 11.4384 14.9033C12.3578 14.9033 13.2396 14.5381 13.8897 13.8879C14.5398 13.2378 14.9051 12.3561 14.9051 11.4366C14.9051 10.5172 14.5398 9.63547 13.8897 8.98534C13.2396 8.33521 12.3578 7.96998 11.4384 7.96998ZM6.30339 11.4366C6.30339 10.0752 6.84422 8.76952 7.80691 7.80683C8.7696 6.84414 10.0753 6.30331 11.4367 6.30331C12.7982 6.30331 14.1039 6.84414 15.0665 7.80683C16.0292 8.76952 16.5701 10.0752 16.5701 11.4366C16.5701 12.7981 16.0292 14.1038 15.0665 15.0665C14.1039 16.0291 12.7982 16.57 11.4367 16.57C10.0753 16.57 8.7696 16.0291 7.80691 15.0665C6.84422 14.1038 6.30339 12.7981 6.30339 11.4366Z" fill="white"/>
</svg>
