<svg width="25" height="25" viewBox="0 0 25 25" fill="none" xmlns="http://www.w3.org/2000/svg">
<path d="M6.89583 11.2396C8.39583 14.1875 10.8125 16.6042 13.7604 18.1042L16.0521 15.8125C16.3437 15.5208 16.75 15.4375 17.1146 15.5521C18.2812 15.9375 19.5312 16.1458 20.8333 16.1458C21.1096 16.1458 21.3746 16.2556 21.5699 16.4509C21.7653 16.6463 21.875 16.9112 21.875 17.1875V20.8333C21.875 21.1096 21.7653 21.3746 21.5699 21.5699C21.3746 21.7653 21.1096 21.875 20.8333 21.875C16.1368 21.875 11.6326 20.0093 8.31165 16.6883C4.99069 13.3674 3.125 8.86321 3.125 4.16667C3.125 3.8904 3.23475 3.62545 3.4301 3.4301C3.62545 3.23475 3.8904 3.125 4.16667 3.125H7.8125C8.08877 3.125 8.35372 3.23475 8.54907 3.4301C8.74442 3.62545 8.85417 3.8904 8.85417 4.16667C8.85417 5.46875 9.0625 6.71875 9.44792 7.88542C9.5625 8.25 9.47917 8.65625 9.1875 8.94792L6.89583 11.2396Z" fill="white"/>
</svg>
