<svg width="25" height="25" viewBox="0 0 25 25" fill="none" xmlns="http://www.w3.org/2000/svg">
<path fill-rule="evenodd" clip-rule="evenodd" d="M12.5002 2.08331C6.74704 2.08331 2.0835 6.74685 2.0835 12.5C2.0835 14.4687 2.63037 16.3125 3.58141 17.8833L2.65225 21.0416C2.5989 21.223 2.59539 21.4153 2.64208 21.5985C2.68878 21.7817 2.78396 21.9489 2.91762 22.0825C3.05128 22.2162 3.21848 22.3114 3.40164 22.3581C3.5848 22.4048 3.77716 22.4012 3.9585 22.3479L7.11683 21.4187C8.74051 22.401 10.6025 22.9191 12.5002 22.9166C18.2533 22.9166 22.9168 18.2531 22.9168 12.5C22.9168 6.74685 18.2533 2.08331 12.5002 2.08331ZM10.1439 14.8573C12.2512 16.9635 14.2627 17.2416 14.9731 17.2677C16.0533 17.3073 17.1054 16.4823 17.5147 15.525C17.566 15.4058 17.5845 15.2751 17.5684 15.1464C17.5523 15.0177 17.5021 14.8956 17.4231 14.7927C16.8522 14.0635 16.0804 13.5396 15.3262 13.0187C15.1688 12.9096 14.9753 12.8658 14.7862 12.8965C14.5972 12.9272 14.4274 13.03 14.3127 13.1833L13.6877 14.1364C13.6546 14.1875 13.6034 14.2241 13.5444 14.2388C13.4854 14.2535 13.4231 14.2452 13.37 14.2156C12.946 13.9729 12.3283 13.5604 11.8845 13.1166C11.4408 12.6729 11.0533 12.0833 10.8356 11.6864C10.8092 11.6359 10.8018 11.5776 10.8146 11.522C10.8274 11.4664 10.8596 11.4173 10.9054 11.3833L11.8679 10.6687C12.0056 10.5496 12.0946 10.3837 12.1176 10.2031C12.1407 10.0224 12.0963 9.83952 11.9929 9.68956C11.5262 9.00623 10.9825 8.13748 10.1939 7.56144C10.0919 7.48816 9.97275 7.44247 9.84793 7.42878C9.7231 7.4151 9.59685 7.43388 9.48141 7.48331C8.52308 7.89373 7.69391 8.94581 7.7335 10.0281C7.75954 10.7385 8.03766 12.75 10.1439 14.8573Z" fill="white"/>
</svg>
