<svg width="27" height="27" viewBox="0 0 27 27" fill="none" xmlns="http://www.w3.org/2000/svg">
<path d="M21.1113 3.33337C21.7006 3.33337 22.2659 3.5675 22.6826 3.98425C23.0994 4.401 23.3335 4.96623 23.3335 5.5556V21.1112C23.3335 21.7005 23.0994 22.2658 22.6826 22.6825C22.2659 23.0992 21.7006 23.3334 21.1113 23.3334H5.55572C4.96635 23.3334 4.40112 23.0992 3.98437 22.6825C3.56762 22.2658 3.3335 21.7005 3.3335 21.1112V5.5556C3.3335 4.96623 3.56762 4.401 3.98437 3.98425C4.40112 3.5675 4.96635 3.33337 5.55572 3.33337H21.1113ZM20.5557 20.5556V14.6667C20.5557 13.706 20.1741 12.7847 19.4948 12.1054C18.8155 11.4261 17.8942 11.0445 16.9335 11.0445C15.9891 11.0445 14.8891 11.6223 14.3557 12.4889V11.2556H11.2557V20.5556H14.3557V15.0778C14.3557 14.2223 15.0446 13.5223 15.9002 13.5223C16.3127 13.5223 16.7084 13.6862 17.0001 13.9779C17.2918 14.2696 17.4557 14.6653 17.4557 15.0778V20.5556H20.5557ZM7.64461 9.51115C8.13968 9.51115 8.61447 9.31449 8.96454 8.96442C9.31461 8.61435 9.51127 8.13956 9.51127 7.64449C9.51127 6.61115 8.67794 5.76671 7.64461 5.76671C7.14659 5.76671 6.66897 5.96454 6.31682 6.3167C5.96467 6.66885 5.76683 7.14647 5.76683 7.64449C5.76683 8.67782 6.61127 9.51115 7.64461 9.51115ZM9.18905 20.5556V11.2556H6.11127V20.5556H9.18905Z" fill="white"/>
</svg>
