<svg width="41" height="41" viewBox="0 0 41 41" fill="none" xmlns="http://www.w3.org/2000/svg">
<path d="M20.4998 2.91675C23.8039 2.91675 26.9729 4.22977 29.3093 6.56616C31.6455 8.90246 32.9587 12.0708 32.9587 15.3748C32.9587 17.7179 32.1804 20.3019 31.0466 22.8328C29.9098 25.3704 28.3975 27.8924 26.8933 30.1218C25.3882 32.3526 23.8841 34.2999 22.7566 35.6892C22.1926 36.3841 21.7221 36.9402 21.3923 37.323C21.2276 37.5142 21.0984 37.6628 21.0095 37.7634C20.9651 37.8137 20.9302 37.8526 20.907 37.8787C20.8955 37.8915 20.8866 37.9013 20.8806 37.908C20.8776 37.9113 20.8754 37.914 20.8738 37.9158C20.873 37.9166 20.8723 37.9172 20.8718 37.9177V37.9187L20.4998 37.5837L20.8708 37.9187L20.4998 38.3298L20.1287 37.9187V37.9177C20.1283 37.9173 20.1274 37.9166 20.1267 37.9158C20.1251 37.914 20.1228 37.9112 20.1199 37.908C20.1138 37.9012 20.1041 37.8917 20.0925 37.8787C20.0693 37.8526 20.0354 37.8137 19.991 37.7634C19.9021 37.6628 19.772 37.5143 19.6072 37.323C19.2774 36.9402 18.8067 36.3839 18.2429 35.6892C17.1154 34.3 15.6112 32.3525 14.1062 30.1218C12.602 27.8924 11.0907 25.3703 9.95386 22.8328C8.82003 20.3018 8.04175 17.718 8.04175 15.3748C8.04183 12.0707 9.35485 8.90248 11.6912 6.56616C14.0275 4.22985 17.1957 2.91683 20.4998 2.91675ZM20.4998 11.6042C19.4998 11.6043 18.5408 12.0016 17.8337 12.7087C17.1266 13.4158 16.7293 14.3748 16.7292 15.3748C16.7292 16.3748 17.1266 17.3346 17.8337 18.0417C18.5408 18.7487 19.4999 19.1462 20.4998 19.1462C20.9949 19.1462 21.4856 19.0486 21.9431 18.8591C22.4006 18.6696 22.8166 18.3919 23.1667 18.0417C23.5169 17.6916 23.7946 17.2756 23.9841 16.8181C24.1736 16.3606 24.2712 15.8699 24.2712 15.3748C24.2712 14.3749 23.8737 13.4158 23.1667 12.7087C22.4596 12.0016 21.4998 11.6042 20.4998 11.6042Z" fill="#E15814" stroke="white"/>
</svg>
