<svg width="25" height="25" viewBox="0 0 25 25" fill="none" xmlns="http://www.w3.org/2000/svg">
<path d="M16.6668 8.33333V7.29167C16.6668 6.1866 16.2278 5.12679 15.4464 4.34539C14.665 3.56399 13.6052 3.125 12.5002 3.125C11.3951 3.125 10.3353 3.56399 9.55388 4.34539C8.77248 5.12679 8.3335 6.1866 8.3335 7.29167V8.33333" stroke="black" stroke-width="2" stroke-linecap="round"/>
<path fill-rule="evenodd" clip-rule="evenodd" d="M4.04062 8.20737C3.125 9.12196 3.125 10.5959 3.125 13.5417V14.5834C3.125 18.5115 3.125 20.4761 4.34583 21.6959C5.56667 22.9157 7.53021 22.9167 11.4583 22.9167H13.5417C17.4698 22.9167 19.4344 22.9167 20.6542 21.6959C21.874 20.4751 21.875 18.5115 21.875 14.5834V13.5417C21.875 10.5959 21.875 9.12196 20.9594 8.20737C20.0448 7.29175 18.5708 7.29175 15.625 7.29175H9.375C6.42917 7.29175 4.95521 7.29175 4.04062 8.20737ZM12.5 15.6251C12.7763 15.6251 13.0412 15.5153 13.2366 15.32C13.4319 15.1246 13.5417 14.8597 13.5417 14.5834C13.5417 14.3071 13.4319 14.0422 13.2366 13.8468C13.0412 13.6515 12.7763 13.5417 12.5 13.5417C12.2237 13.5417 11.9588 13.6515 11.7634 13.8468C11.5681 14.0422 11.4583 14.3071 11.4583 14.5834C11.4583 14.8597 11.5681 15.1246 11.7634 15.32C11.9588 15.5153 12.2237 15.6251 12.5 15.6251ZM15.625 14.5834C15.6253 15.2299 15.4251 15.8606 15.052 16.3886C14.6789 16.9166 14.1512 17.3158 13.5417 17.5313V19.7917H11.4583V17.5313C10.9179 17.3405 10.4403 17.0048 10.0777 16.5609C9.71518 16.1169 9.48167 15.5819 9.40272 15.0142C9.32376 14.4465 9.40241 13.868 9.63005 13.342C9.85769 12.816 10.2256 12.3627 10.6935 12.0317C11.1614 11.7006 11.7113 11.5046 12.2831 11.465C12.8548 11.4254 13.4265 11.5438 13.9356 11.8072C14.4446 12.0706 14.8714 12.4689 15.1694 12.9585C15.4674 13.4481 15.625 14.0103 15.625 14.5834Z" fill="black"/>
</svg>
