<svg width="25" height="25" viewBox="0 0 25 25" fill="none" xmlns="http://www.w3.org/2000/svg">
<path fill-rule="evenodd" clip-rule="evenodd" d="M20.1592 6.77075H17.1769V9.37492H6.67067V15.6249H17.1769V18.2291H20.1603C19.2121 19.6706 17.9203 20.8537 16.4013 21.672C14.8822 22.4902 13.1836 22.9179 11.4582 22.9166C5.70505 22.9166 1.0415 18.253 1.0415 12.4999C1.0415 6.7468 5.70505 2.08325 11.4582 2.08325C13.1834 2.08209 14.8818 2.50988 16.4007 3.32812C17.9195 4.14637 19.2111 5.32939 20.1592 6.77075Z" fill="#E15814"/>
<path fill-rule="evenodd" clip-rule="evenodd" d="M19.7811 8.33325L23.9478 12.4999L19.7811 16.6666H18.7394V14.0624H8.32275V10.9374H18.7394V8.33325H19.7811Z" fill="#E15814"/>
</svg>
