<svg width="30" height="30" viewBox="0 0 30 30" fill="none" xmlns="http://www.w3.org/2000/svg">
<path d="M16.5898 2.50504C16.4643 2.50136 16.3395 2.52289 16.2225 2.56835C16.1056 2.61382 15.999 2.68229 15.909 2.76971C15.819 2.85714 15.7475 2.96174 15.6987 3.07731C15.6498 3.19288 15.6247 3.31708 15.6248 3.44254V13.4375C15.6248 13.955 16.0448 14.375 16.5623 14.375H26.5573C26.6827 14.3751 26.8069 14.35 26.9225 14.3011C27.0381 14.2523 27.1427 14.1808 27.2301 14.0908C27.3175 14.0008 27.386 13.8942 27.4314 13.7773C27.4769 13.6603 27.4984 13.5355 27.4948 13.41C27.4082 10.5453 26.2315 7.82157 24.2048 5.79496C22.1782 3.76834 19.4545 2.59163 16.5898 2.50504ZM13.4448 5.26379C13.5409 5.35169 13.6177 5.45867 13.6702 5.5779C13.7227 5.69714 13.7498 5.82601 13.7498 5.95629V13.4375C13.7498 14.1835 14.0461 14.8988 14.5735 15.4263C15.101 15.9537 15.8163 16.25 16.5623 16.25H24.0185C24.1489 16.25 24.2779 16.2772 24.3972 16.3298C24.5165 16.3825 24.6235 16.4594 24.7114 16.5558C24.7993 16.6521 24.8661 16.7657 24.9076 16.8894C24.949 17.013 24.9643 17.1439 24.9523 17.2738C24.7535 19.4017 23.9528 21.4289 22.6438 23.1183C21.3349 24.8077 19.5719 26.0893 17.5611 26.8133C15.5504 27.5372 13.375 27.6735 11.2896 27.2062C9.20417 26.7389 7.29498 25.6873 5.78542 24.1745C4.27587 22.6617 3.22839 20.7503 2.76556 18.6639C2.30272 16.5775 2.44369 14.4024 3.17195 12.3932C3.90021 10.384 5.18564 8.62372 6.87783 7.31842C8.57002 6.01312 10.599 5.21677 12.7273 5.02254C12.8571 5.01067 12.9879 5.02599 13.1114 5.06753C13.235 5.10907 13.3485 5.17591 13.4448 5.26379Z" fill="url(#paint0_linear_304_235)"/>
<defs>
<linearGradient id="paint0_linear_304_235" x1="14.9968" y1="2.50464" x2="14.9968" y2="27.4785" gradientUnits="userSpaceOnUse">
<stop stop-color="#E15814"/>
<stop offset="1" stop-color="#FF8B51"/>
</linearGradient>
</defs>
</svg>
