<svg width="30" height="30" viewBox="0 0 30 30" fill="none" xmlns="http://www.w3.org/2000/svg">
<path d="M21.5625 15C22.3084 15 23.0238 15.2963 23.5512 15.8238C24.0787 16.3512 24.375 17.0666 24.375 17.8125V18.75C24.375 22.4456 20.8875 26.25 15 26.25C9.1125 26.25 5.625 22.4456 5.625 18.75V17.8125C5.625 17.0666 5.92132 16.3512 6.44876 15.8238C6.97621 15.2963 7.69158 15 8.4375 15H21.5625ZM21.5625 16.875H8.4375C8.18886 16.875 7.9504 16.9738 7.77459 17.1496C7.59877 17.3254 7.5 17.5639 7.5 17.8125V18.75C7.5 21.4462 10.185 24.375 15 24.375C19.815 24.375 22.5 21.4462 22.5 18.75V17.8125C22.5 17.5639 22.4012 17.3254 22.2254 17.1496C22.0496 16.9738 21.8111 16.875 21.5625 16.875ZM15 2.8125C16.3675 2.8125 17.679 3.35575 18.646 4.32273C19.613 5.28972 20.1562 6.60123 20.1562 7.96875C20.1562 9.33627 19.613 10.6478 18.646 11.6148C17.679 12.5818 16.3675 13.125 15 13.125C13.6325 13.125 12.321 12.5818 11.354 11.6148C10.387 10.6478 9.84375 9.33627 9.84375 7.96875C9.84375 6.60123 10.387 5.28972 11.354 4.32273C12.321 3.35575 13.6325 2.8125 15 2.8125ZM15 4.6875C14.1298 4.6875 13.2952 5.0332 12.6798 5.64856C12.0645 6.26391 11.7188 7.09851 11.7188 7.96875C11.7188 8.83899 12.0645 9.67359 12.6798 10.2889C13.2952 10.9043 14.1298 11.25 15 11.25C15.8702 11.25 16.7048 10.9043 17.3202 10.2889C17.9355 9.67359 18.2812 8.83899 18.2812 7.96875C18.2812 7.09851 17.9355 6.26391 17.3202 5.64856C16.7048 5.0332 15.8702 4.6875 15 4.6875Z" fill="#E15814"/>
</svg>
