<svg width="40" height="40" viewBox="0 0 40 40" fill="none" xmlns="http://www.w3.org/2000/svg">
<path d="M20.0002 6.25L19.6089 6.6L5.35018 21.0162L4.49268 21.8762L5.35143 22.7763L17.2264 34.6513L18.1264 35.51L18.9889 34.6513L33.4014 20.3925L33.7502 20V6.25H20.0002ZM21.0552 8.75H31.2502V18.945L18.1252 31.9925L8.00768 21.875L21.0552 8.75ZM27.5002 11.25C27.1687 11.25 26.8507 11.3817 26.6163 11.6161C26.3819 11.8505 26.2502 12.1685 26.2502 12.5C26.2502 12.8315 26.3819 13.1495 26.6163 13.3839C26.8507 13.6183 27.1687 13.75 27.5002 13.75C27.8317 13.75 28.1496 13.6183 28.3841 13.3839C28.6185 13.1495 28.7502 12.8315 28.7502 12.5C28.7502 12.1685 28.6185 11.8505 28.3841 11.6161C28.1496 11.3817 27.8317 11.25 27.5002 11.25Z" fill="#E15814"/>
</svg>
