<svg width="36" height="36" viewBox="0 0 36 36" fill="none" xmlns="http://www.w3.org/2000/svg">
<path d="M24.3517 26.7367C21.853 28.6312 18.7281 29.5064 15.6089 29.1854C12.4896 28.8645 9.60846 27.3714 7.54778 25.0078C5.48709 22.6442 4.40051 19.5865 4.50766 16.4526C4.61481 13.3187 5.90768 10.3423 8.12499 8.12499C10.3423 5.90768 13.3187 4.61481 16.4526 4.50766C19.5865 4.40051 22.6442 5.48709 25.0078 7.54778C27.3714 9.60846 28.8645 12.4896 29.1854 15.6089C29.5064 18.7281 28.6312 21.853 26.7367 24.3517L33.255 30.87C33.4208 31.0245 33.5538 31.2108 33.646 31.4178C33.7382 31.6248 33.7878 31.8482 33.7918 32.0748C33.7958 32.3014 33.7541 32.5265 33.6693 32.7366C33.5844 32.9467 33.4581 33.1376 33.2978 33.2978C33.1376 33.4581 32.9467 33.5844 32.7366 33.6693C32.5265 33.7541 32.3014 33.7958 32.0748 33.7918C31.8482 33.7878 31.6248 33.7382 31.4178 33.646C31.2108 33.5538 31.0245 33.4208 30.87 33.255L24.3517 26.7367ZM25.875 16.875C25.875 14.488 24.9268 12.1989 23.239 10.511C21.5511 8.8232 19.2619 7.87499 16.875 7.87499C14.488 7.87499 12.1989 8.8232 10.511 10.511C8.8232 12.1989 7.87499 14.488 7.87499 16.875C7.87499 19.2619 8.8232 21.5511 10.511 23.239C12.1989 24.9268 14.488 25.875 16.875 25.875C19.2619 25.875 21.5511 24.9268 23.239 23.239C24.9268 21.5511 25.875 19.2619 25.875 16.875Z" fill="#C5C5C5"/>
</svg>
