<svg width="25" height="25" viewBox="0 0 25 25" fill="none" xmlns="http://www.w3.org/2000/svg">
<path fill-rule="evenodd" clip-rule="evenodd" d="M14.5668 2.64784C14.6575 2.82388 14.6804 3.04992 14.7252 3.502C14.8106 4.35617 14.8533 4.78325 15.0325 5.01867C15.1441 5.16484 15.2924 5.27884 15.4624 5.3491C15.6324 5.41936 15.8179 5.44336 16.0002 5.41867C16.2918 5.38013 16.6252 5.10825 17.2897 4.5645C17.6408 4.27596 17.8168 4.13221 18.0054 4.07179C18.2455 3.99506 18.5053 4.00801 18.7366 4.10825C18.9189 4.18742 19.0804 4.34784 19.4002 4.66867L20.3314 5.59992C20.6522 5.92075 20.8127 6.08117 20.8918 6.26346C20.9921 6.49477 21.005 6.75458 20.9283 6.99471C20.8679 7.18325 20.7241 7.35929 20.4366 7.71034C19.8918 8.37596 19.62 8.70825 19.5804 9.00096C19.556 9.18314 19.5802 9.36854 19.6507 9.53831C19.7211 9.70809 19.8352 9.85621 19.9814 9.96763C20.2158 10.1468 20.6439 10.1895 21.4991 10.2749C21.9502 10.3197 22.1762 10.3426 22.3533 10.4333C22.5767 10.5491 22.7506 10.7419 22.8429 10.976C22.9168 11.1603 22.9168 11.3874 22.9168 11.8416V13.1583C22.9168 13.6124 22.9168 13.8395 22.8439 14.0228C22.7513 14.2577 22.5766 14.4509 22.3522 14.5666C22.1762 14.6572 21.9502 14.6801 21.4981 14.7249C20.6439 14.8103 20.2168 14.853 19.9814 15.0322C19.8352 15.1438 19.7212 15.2922 19.651 15.4621C19.5807 15.6321 19.5567 15.8177 19.5814 15.9999C19.621 16.2916 19.8929 16.6249 20.4366 17.2895C20.7241 17.6405 20.8679 17.8155 20.9283 18.0051C21.005 18.2453 20.9921 18.5051 20.8918 18.7364C20.8127 18.9187 20.6522 19.0791 20.3314 19.3999L19.4002 20.3301C19.0793 20.652 18.9189 20.8124 18.7366 20.8905C18.5053 20.9908 18.2455 21.0037 18.0054 20.927C17.8168 20.8666 17.6408 20.7228 17.2897 20.4353C16.6241 19.8916 16.2918 19.6197 16.0002 19.5812C15.8179 19.5565 15.6324 19.5805 15.4624 19.6507C15.2924 19.721 15.1441 19.835 15.0325 19.9812C14.8533 20.2155 14.8106 20.6426 14.7252 21.4978C14.6804 21.9499 14.6575 22.176 14.5668 22.352C14.4514 22.5762 14.2586 22.7509 14.0241 22.8437C13.8397 22.9166 13.6127 22.9166 13.1585 22.9166H11.8418C11.3877 22.9166 11.1606 22.9166 10.9772 22.8437C10.7424 22.7511 10.5492 22.5764 10.4335 22.352C10.3429 22.176 10.32 21.9499 10.2752 21.4978C10.1897 20.6437 10.147 20.2166 9.96787 19.9812C9.85633 19.8352 9.70816 19.7213 9.53839 19.651C9.36862 19.5808 9.18329 19.5567 9.0012 19.5812C8.7085 19.6197 8.3762 19.8916 7.71058 20.4353C7.35954 20.7239 7.1835 20.8676 6.99495 20.928C6.75482 21.0048 6.49501 20.9918 6.2637 20.8916C6.08141 20.8124 5.91995 20.652 5.60016 20.3312L4.66891 19.3999C4.34808 19.0791 4.18766 18.9187 4.1085 18.7364C4.00826 18.5051 3.99531 18.2453 4.07204 18.0051C4.13245 17.8166 4.2762 17.6405 4.5637 17.2895C5.1085 16.6239 5.38037 16.2916 5.41891 15.9989C5.44341 15.8168 5.41932 15.6315 5.34907 15.4617C5.27882 15.2919 5.16491 15.1437 5.01891 15.0322C4.78454 14.853 4.35641 14.8103 3.5012 14.7249C3.05016 14.6801 2.82412 14.6572 2.64704 14.5666C2.42365 14.4508 2.24974 14.258 2.15745 14.0239C2.0835 13.8395 2.0835 13.6124 2.0835 13.1583V11.8416C2.0835 11.3874 2.0835 11.1603 2.15641 10.977C2.249 10.7422 2.42372 10.5489 2.64808 10.4333C2.82412 10.3426 3.05016 10.3197 3.50225 10.2749C4.35641 10.1895 4.78454 10.1468 5.01891 9.96763C5.1651 9.85621 5.27921 9.70809 5.34964 9.53831C5.42008 9.36854 5.44434 9.18314 5.41995 9.00096C5.38037 8.70825 5.10745 8.37596 4.5637 7.70929C4.2762 7.35825 4.13245 7.18325 4.07204 6.99367C3.99531 6.75354 4.00826 6.49373 4.1085 6.26242C4.18766 6.08117 4.34808 5.91971 4.66891 5.59888L5.60016 4.66867C5.921 4.34784 6.08141 4.18638 6.2637 4.10825C6.49501 4.00801 6.75482 3.99506 6.99495 4.07179C7.1835 4.13221 7.35954 4.27596 7.71058 4.56346C8.3762 5.10721 8.7085 5.37909 9.00016 5.41867C9.18268 5.44344 9.36849 5.41937 9.53867 5.34892C9.70885 5.27847 9.85731 5.16415 9.96891 5.01763C10.146 4.78325 10.1897 4.35617 10.2752 3.50096C10.32 3.04992 10.3429 2.82388 10.4335 2.64679C10.5491 2.42301 10.7419 2.24871 10.9762 2.15617C11.1606 2.08325 11.3877 2.08325 11.8418 2.08325H13.1585C13.6127 2.08325 13.8397 2.08325 14.0231 2.15617C14.2579 2.24876 14.4511 2.42348 14.5668 2.64784ZM12.5002 16.6666C13.6052 16.6666 14.665 16.2276 15.4464 15.4462C16.2278 14.6648 16.6668 13.605 16.6668 12.4999C16.6668 11.3948 16.2278 10.335 15.4464 9.55364C14.665 8.77224 13.6052 8.33325 12.5002 8.33325C11.3951 8.33325 10.3353 8.77224 9.55388 9.55364C8.77248 10.335 8.3335 11.3948 8.3335 12.4999C8.3335 13.605 8.77248 14.6648 9.55388 15.4462C10.3353 16.2276 11.3951 16.6666 12.5002 16.6666Z" fill="black"/>
</svg>
