<svg width="40" height="40" viewBox="0 0 40 40" fill="none" xmlns="http://www.w3.org/2000/svg">
<path fill-rule="evenodd" clip-rule="evenodd" d="M14.0593 27.5364L13.3313 37.2531C13.2801 37.9359 13.8871 38.4062 14.43 38.1018C18.274 35.9487 30.3152 28.0401 36.418 10.6584C36.6979 9.86108 35.9459 9.14158 35.3038 9.59133C31.6988 12.1159 23.8204 17.334 18.9517 18.3279C18.9517 18.3279 22.0696 16.1623 23.9358 12.8379C24.1188 12.512 24.1036 12.0948 23.8996 11.8007L17.0938 1.99119C16.6905 1.40969 15.8628 1.65062 15.7171 2.39183L13.5983 13.1728L3.65356 21.8523C3.15494 22.2873 3.25665 23.1665 3.83234 23.3993L14.0593 27.5364Z" fill="#E15814"/>
<path fill-rule="evenodd" clip-rule="evenodd" d="M31.6453 23.7068C31.0156 24.5855 29.6589 26.3932 28.4063 27.498C28.1558 27.7188 28.1896 28.0892 28.4769 28.2696L35.0953 32.4244C35.4938 32.6744 36.0319 32.3775 35.9646 31.9438C35.6568 29.9582 34.7697 25.8184 32.5273 23.6453C32.2768 23.4027 31.8451 23.4282 31.6453 23.7068Z" fill="#E15814"/>
</svg>
